<?xml version="1.0" standalone="no"?>
<!DOCTYPE svg PUBLIC "-//W3C//DTD SVG 20010904//EN"
 "http://www.w3.org/TR/2001/REC-SVG-20010904/DTD/svg10.dtd">
<svg version="1.0" xmlns="http://www.w3.org/2000/svg"
 width="512.000000pt" height="512.000000pt" viewBox="0 0 512.000000 512.000000"
 preserveAspectRatio="xMidYMid meet">

<g transform="translate(0.000000,512.000000) scale(0.100000,-0.100000)"
fill="#FFFFFF" stroke="none">
<path d="M1615 3714 c-45 -24 -713 -693 -737 -738 -27 -53 -27 -139 0 -192 25
-47 693 -715 739 -738 35 -18 128 -21 166 -7 40 16 99 73 118 116 24 51 24
119 0 170 -11 24 -79 100 -165 185 -80 80 -146 148 -146 153 0 4 472 6 1048 5
l1049 -3 48 -30 c36 -22 57 -45 77 -84 l28 -53 0 -469 c0 -512 0 -511 58 -572
48 -51 97 -70 168 -65 78 5 136 41 174 108 l25 45 0 500 c0 447 -2 507 -18
565 -50 185 -174 337 -343 419 -129 63 -86 61 -1251 61 -585 0 -1063 3 -1063
8 0 4 66 72 146 152 86 85 154 161 165 185 47 101 2 222 -103 276 -46 23 -140
25 -183 3z"/>
</g>
</svg>
