<?xml version="1.0" standalone="no"?>
<!DOCTYPE svg PUBLIC "-//W3C//DTD SVG 20010904//EN"
 "http://www.w3.org/TR/2001/REC-SVG-20010904/DTD/svg10.dtd">
<svg version="1.0" xmlns="http://www.w3.org/2000/svg"
 width="34.000000pt" height="34.000000pt" viewBox="0 0 34.000000 34.000000"
 preserveAspectRatio="xMidYMid meet">

<g transform="translate(0.000000,34.000000) scale(0.100000,-0.100000)"
fill="#FFFFFF" stroke="none">
<path d="M29 231 c-20 -20 -29 -39 -29 -61 0 -22 9 -41 29 -61 29 -29 31 -29
141 -29 110 0 112 0 141 29 20 20 29 39 29 61 0 22 -9 41 -29 61 -29 29 -31
29 -141 29 -110 0 -112 0 -141 -29z m268 -13 c29 -27 29 -65 1 -95 -27 -29
-65 -29 -95 -1 -29 27 -29 65 -1 95 27 29 65 29 95 1z"/>
</g>
</svg>
